<svg height="120" viewBox="0 0 120 120" width="120" xmlns="http://www.w3.org/2000/svg">
	<path d="m51.428977.00000072-4.952651 13.05724228c-3.47531 1.039423-6.824097 2.462563-9.984452 4.243109l-12.856537-5.786571-2.171025 2.171024-7.779505 7.779505-2.171025 2.171025 5.783746 12.856536c-1.77957 3.160478-3.201759 6.509261-4.240282 9.984453l-13.05724528 4.95265v3.069964 11.00212 3.069965l13.05724528 4.952651c1.038326 3.476163 2.460519 6.825904 4.240282 9.987278l-5.783746 12.856537 2.171025 2.168198 7.779505 7.782333 2.171025 2.1682 12.856537-5.78658c3.160355 1.78055 6.509142 3.20369 9.984452 4.24311l4.952651 13.05724h3.069964 11.00212 3.069965l4.952649-13.05724c3.475311-1.03942 6.824098-2.46256 9.984453-4.24311l12.856536 5.78658 2.171025-2.1682 7.779501-7.782333 2.17103-2.168198-5.78375-12.856537c1.77977-3.161374 3.20196-6.511115 4.24029-9.987278l13.05724-4.952651v-3.069965-11.00212-3.069964l-13.05159-4.949823c-1.01322-3.517765-2.4185-6.910553-4.1894-10.114487l5.72721-12.729329-2.17103-2.171025-7.779501-7.779505-2.171025-2.171024-12.729327 5.727208c-3.203936-1.770897-6.596722-3.176182-10.114489-4.189399l-4.949822-13.05158928h-3.069965-11.00212zm8.571023 29.55194128a30.447068 30.447068 0 0 1 30.448057 30.448057 30.447068 30.447068 0 0 1 -30.448057 30.448055 30.447068 30.447068 0 0 1 -30.448055-30.448055 30.447068 30.447068 0 0 1 30.448055-30.448057z" fill="#999" />
</svg>
